# xmcd CD database file
#
# Track frame offsets:
#	150
#	17615
#	30418
#	41240
#	53999
#	68417
#	81307
#	96927
#	112299
#	123760
#	135870
#	147954
#
# Disc length: 2252 seconds
#
# Revision: 0
# Processed by: cddbd v1.4PL0 Copyright (c) Steve Scherf et al.
# Submitted via: CDex 1.40Beta9
#
DISCID=9d08ca0c
DTITLE=The Blues Rock'n Soul Review - Reviews
DYEAR=1900
DGENRE=Blues
TTITLE0=Summer of '81
TTITLE1=I feel good
TTITLE2=Midnight hour
TTITLE3=Soul man
TTITLE4=Harlem shuffle
TTITLE5=Soul sister
TTITLE6=Chain of fools
TTITLE7=6345789
TTITLE8=Sweet soul music
TTITLE9=Hard to handle
TTITLE10=I aint got you
TTITLE11=Easy
EXTD=ID3G: 0
EXTT0=
EXTT1=
EXTT2=
EXTT3=
EXTT4=
EXTT5=
EXTT6=
EXTT7=
EXTT8=
EXTT9=
EXTT10=
EXTT11=
PLAYORDER=
